#!OML:ASF G:\JayActor3\Patient Classification 1\Patient 1\Session 6\male.ASF
:FULLY-SPECIFIED
:DEGREES
3838
root -2.35526 16.4156 -0.4477 361.964 -56.8873 -366.698
lowerback -1.07928 2.1271 5.98641
upperback -1.6474 2.79919 1.97592
thorax -0.904284 1.33308 -1.30381
lowerneck 6.55444 6.90978 1.58834
upperneck 2.12849 9.28873 13.6637
head -1.10846 4.419 3.87323
rclavicle 7.16619e-014 1.23246e-014
rhumerus -25.4632 49.9444 -103.244
rradius 92.3859
rwrist 15.5873
rhand -57.5504 15.6392
rfingers 7.12502
rthumb -29.8169 -11.9811
lclavicle 7.16619e-014 1.23246e-014
lhumerus -42.6445 -23.5461 98.0041
lradius 98.964
lwrist 4.6694
lhand -47.7193 -14.7105
lfingers 7.12502
lthumb -20.3986 14.238
rfemur -11.6306 -5.19799 23.5999
rtibia 35.5466
rfoot -28.6424 -18.8763
rtoes 3.67249
lfemur 3.13653 -0.530779 -12.9703
ltibia 20.2209
lfoot -17.733 -3.33214
ltoes 4.385
3839
root -2.33698 16.4145 -0.434072 361.973 -57.0884 -366.736
lowerback -1.07841 2.07046 6.00663
upperback -1.60744 2.7215 2.027
thorax -0.870262 1.29567 -1.2626
lowerneck 6.60345 6.3468 1.53072
upperneck 2.13849 8.52546 12.9205
head -1.02284 4.05246 3.65602
rclavicle 1.94809e-014 -1.43125e-014
rhumerus -25.061 50.1121 -102.916
rradius 92.3671
rwrist 15.5199
rhand -57.5426 15.6236
rfingers 7.12502
rthumb -29.8094 -11.998
lclavicle 1.94809e-014 -1.43125e-014
lhumerus -42.624 -23.4237 98.0074
lradius 98.9966
lwrist 4.62305
lhand -47.7137 -14.6777
lfingers 7.12502
lthumb -20.3932 14.2715
rfemur -11.6764 -5.13728 23.5196
rtibia 35.5956
rfoot -28.5419 -18.7631
rtoes 3.45899
lfemur 3.20937 -0.413526 -13.0441
ltibia 20.1825
lfoot -17.7769 -3.26392
ltoes 4.47055
3840
root -2.31878 16.4132 -0.420344 361.979 -57.2927 -366.773
lowerback -1.0744 2.01932 6.02624
upperback -1.57285 2.65166 2.06936
thorax -0.84256 1.26192 -1.23018
lowerneck 6.67622 5.73012 1.47828
upperneck 2.12827 7.69585 12.1394
head -0.948571 3.65136 3.42686
rclavicle -2.04748e-014 -2.46493e-014
rhumerus -24.6625 50.2356 -102.599
rradius 92.3512
rwrist 15.4513
rhand -57.5303 15.6031
rfingers 7.12502
rthumb -29.7977 -12.0206
lclavicle -2.04748e-014 -2.46493e-014
lhumerus -42.6221 -23.3336 98.012
lradius 99.028
lwrist 4.5646
lhand -47.7294 -14.6691
lfingers 7.12502
lthumb -20.4084 14.2784
rfemur -11.7254 -5.05379 23.4418
rtibia 35.6513
rfoot -28.4371 -18.6699
rtoes 3.30177
lfemur 3.28557 -0.255624 -13.1161
ltibia 20.1315
lfoot -17.8122 -3.17446
ltoes 4.31191
3841
root -2.30032 16.4118 -0.406361 361.983 -57.5026 -366.809
lowerback -1.06584 1.97123 6.04575
upperback -1.54318 2.58649 2.10552
thorax -0.82185 1.23021 -1.20429
lowerneck 6.76729 5.06859 1.42105
upperneck 2.10128 6.81014 11.3266
head -0.886106 3.22124 3.18982
rclavicle 9.00992e-014 -3.97569e-015
rhumerus -24.2626 50.3266 -102.283
rradius 92.3385
rwrist 15.3885
rhand -57.508 15.6171
rfingers 7.12502
rthumb -29.7765 -12.0104
lclavicle 9.00992e-014 -3.97569e-015
lhumerus -42.635 -23.26 98.0174
lradius 99.0571
lwrist 4.49307
lhand -47.762 -14.6772
lfingers 7.12502
lthumb -20.4397 14.267
rfemur -11.7792 -4.94856 23.3649
rtibia 35.7133
rfoot -28.3304 -18.5942
rtoes 3.1906
lfemur 3.36398 -0.0688356 -13.1898
ltibia 20.0696
lfoot -17.842 -3.0583
ltoes 3.94614
3842
root -2.28143 16.4102 -0.392088 361.988 -57.7117 -366.843
lowerback -1.05353 1.92064 6.06553
upperback -1.51799 2.5185 2.13804
thorax -0.807836 1.19685 -1.18254
lowerneck 6.87146 4.36728 1.35138
upperneck 2.06068 5.87357 10.486
head -0.835144 2.76514 2.94796
rclavicle -1.80894e-014 -2.54444e-014
rhumerus -23.8612 50.3986 -101.971
rradius 92.3271
rwrist 15.336
rhand -57.4755 15.6754
rfingers 7.12502
rthumb -29.7454 -11.9576
lclavicle -1.80894e-014 -2.54444e-014
lhumerus -42.6587 -23.1911 98.0207
lradius 99.0848
lwrist 4.41799
lhand -47.797 -14.6941
lfingers 7.12502
lthumb -20.4733 14.2465
rfemur -11.838 -4.832 23.2899
rtibia 35.7806
rfoot -28.2215 -18.5377
rtoes 3.10463
lfemur 3.43851 0.14512 -13.2641
ltibia 20.0002
lfoot -17.8651 -2.91021
ltoes 3.32149
3843
root -2.2623 16.4088 -0.377756 361.996 -57.9238 -366.877
lowerback -1.04143 1.86592 6.07925
upperback -1.49513 2.44514 2.16976
thorax -0.79662 1.16075 -1.15834
lowerneck 6.97571 3.63335 1.26844
upperneck 2.01216 4.89408 9.61566
head -0.792643 2.28781 2.70114
rclavicle 5.64051e-014 1.15295e-014
rhumerus -23.4517 50.4686 -101.659
rradius 92.3196
rwrist 15.2839
rhand -57.4518 15.6991
rfingers 7.12502
rthumb -29.7228 -11.938
lclavicle 5.64051e-014 1.15295e-014
lhumerus -42.682 -23.1154 98.0177
lradius 99.1093
lwrist 4.34789
lhand -47.8318 -14.7144
lfingers 7.12502
lthumb -20.5068 14.2226
rfemur -11.9018 -4.69239 23.218
rtibia 35.8454
rfoot -28.1186 -18.5008
rtoes 3.03646
lfemur 3.50369 0.367637 -13.3411
ltibia 19.9321
lfoot -17.8849 -2.73873
ltoes 2.56283
3844
root -2.2428 16.4076 -0.363223 362.009 -58.1387 -366.908
lowerback -1.03241 1.80463 6.08365
upperback -1.47333 2.36287 2.20416
thorax -0.785753 1.12026 -1.12622
lowerneck 7.07466 2.87361 1.16558
upperneck 1.95864 3.87945 8.72646
head -0.758224 1.79321 2.45433
rclavicle -9.35779e-014 -2.38542e-015
rhumerus -23.03 50.5374 -101.341
rradius 92.3124
rwrist 15.2534
rhand -57.4211 15.7509
rfingers 7.12502
rthumb -29.6935 -11.8914
lclavicle -9.35779e-014 -2.38542e-015
lhumerus -42.7035 -23.0229 98.0083
lradius 99.134
lwrist 4.29135
lhand -47.8463 -14.7218
lfingers 7.12502
lthumb -20.5207 14.2137
rfemur -11.9705 -4.53827 23.1475
rtibia 35.9046
rfoot -28.0172 -18.4792
rtoes 2.97122
lfemur 3.55813 0.586874 -13.419
ltibia 19.8709
lfoot -17.9005 -2.58177
ltoes 1.87767
